<svg xmlns="http://www.w3.org/2000/svg" viewBox="0 0 1280 720" data-pptx-page-role="content" font-family="Calibri, Arial, sans-serif" font-size="22">
  <defs>
    <marker id="arrow-navy" viewBox="0 0 10 10" refX="9" refY="5" markerWidth="8" markerHeight="8" orient="auto"><polygon points="0,0 10,5 0,10" fill="#003657" /></marker>
    <marker id="arrow-tint" viewBox="0 0 10 10" refX="9" refY="5" markerWidth="8" markerHeight="8" orient="auto"><polygon points="0,0 10,5 0,10" fill="#8AA3B6" /></marker>
    <marker id="arrow-gold" viewBox="0 0 10 10" refX="9" refY="5" markerWidth="8" markerHeight="8" orient="auto"><polygon points="0,0 10,5 0,10" fill="#BC9E60" /></marker>
  </defs>
  <rect id="page-background" data-pptx-role="background" x="0" y="0" width="1280" height="720" fill="#FBF8F2" />

  <g id="kicker" data-pptx-bounds="64 58 500 26">
    <text x="64" y="72" font-size="16" font-weight="bold" letter-spacing="2" fill="#003657">CASE BACKGROUND</text>
    <line x1="64" y1="82" x2="120" y2="82" stroke="#BC9E60" stroke-width="2" />
  </g>

  <g id="title" data-pptx-bounds="64 90 1152 96">
    <text x="64" y="124" font-family="Cambria, Georgia, serif" font-size="40" font-weight="bold" fill="#003657">TPG manages the fund and the fund<tspan x="64" dy="48">holds the investments</tspan></text>
  </g>

  <g id="fund-structure" data-pptx-bounds="64 220 800 400">
    <g id="fund-structure-nodes">
      <rect x="390" y="224" width="300" height="52" fill="#003657" />
      <text x="540" y="248" font-weight="bold" fill="#FBF8F2" text-anchor="middle">TPG</text>
      <text x="540" y="268" font-size="16" fill="#D6CFC2" text-anchor="middle">management / GP entities</text>

      <rect x="390" y="404" width="300" height="52" fill="#003657" />
      <text x="540" y="428" font-weight="bold" fill="#FBF8F2" text-anchor="middle">TPG VI</text>
      <text x="540" y="448" font-size="16" fill="#D6CFC2" text-anchor="middle">the fund (directly or through vehicles)</text>

      <rect x="64" y="380" width="200" height="48" fill="#F1ECE2" />
      <text x="164" y="404" font-weight="bold" fill="#003657" text-anchor="middle">OPERF</text>
      <text x="164" y="422" font-size="16" fill="#5C6670" text-anchor="middle">limited partner</text>

      <rect x="64" y="452" width="200" height="48" fill="#F1ECE2" />
      <text x="164" y="476" font-weight="bold" fill="#003657" text-anchor="middle">Other LPs</text>
      <text x="164" y="494" font-size="16" fill="#5C6670" text-anchor="middle">limited partners</text>
      <text x="64" y="526" font-size="16" fill="#5C6670">Commitments are drawn over time</text>

      <rect x="330" y="560" width="200" height="48" fill="none" stroke="#003657" stroke-width="1.5" />
      <text x="430" y="590" font-weight="bold" fill="#003657" text-anchor="middle">WaMu equity</text>

      <rect x="550" y="560" width="220" height="48" fill="none" stroke="#003657" stroke-width="1.5" />
      <text x="660" y="590" font-weight="bold" fill="#003657" text-anchor="middle">Other investments</text>
    </g>

    <g id="fund-structure-edges" fill="none" stroke-width="2">
      <line x1="470" y1="276" x2="470" y2="402" stroke="#003657" stroke-dasharray="8,4" marker-end="url(#arrow-navy)" />
      <line x1="530" y1="276" x2="530" y2="402" stroke="#003657" marker-end="url(#arrow-navy)" />
      <line x1="590" y1="404" x2="590" y2="278" stroke="#8AA3B6" marker-end="url(#arrow-tint)" />
      <line x1="650" y1="404" x2="650" y2="278" stroke="#BC9E60" marker-end="url(#arrow-gold)" />

      <line x1="264" y1="396" x2="388" y2="408" stroke="#003657" marker-end="url(#arrow-navy)" />
      <line x1="390" y1="420" x2="266" y2="412" stroke="#8AA3B6" marker-end="url(#arrow-tint)" />
      <line x1="264" y1="468" x2="388" y2="444" stroke="#003657" marker-end="url(#arrow-navy)" />
      <line x1="390" y1="456" x2="266" y2="480" stroke="#8AA3B6" marker-end="url(#arrow-tint)" />

      <line x1="450" y1="456" x2="450" y2="558" stroke="#003657" marker-end="url(#arrow-navy)" />
      <line x1="490" y1="560" x2="490" y2="458" stroke="#8AA3B6" marker-end="url(#arrow-tint)" />
      <line x1="640" y1="456" x2="640" y2="558" stroke="#003657" marker-end="url(#arrow-navy)" />
      <line x1="680" y1="560" x2="680" y2="458" stroke="#8AA3B6" marker-end="url(#arrow-tint)" />
    </g>

    <g id="fund-structure-badges" font-size="14" font-weight="bold" fill="#003657" text-anchor="middle">
      <g stroke="#003657" stroke-width="1.2" fill="#FBF8F2">
        <circle cx="450" cy="340" r="11" />
        <circle cx="550" cy="340" r="11" />
        <circle cx="610" cy="340" r="11" />
        <circle cx="670" cy="340" r="11" />
        <circle cx="300" cy="384" r="11" />
        <circle cx="300" cy="436" r="11" />
        <circle cx="430" cy="508" r="11" />
        <circle cx="510" cy="508" r="11" />
        <circle cx="620" cy="508" r="11" />
        <circle cx="700" cy="508" r="11" />
      </g>
      <text x="450" y="345">1</text>
      <text x="550" y="345">2</text>
      <text x="610" y="345">7</text>
      <text x="670" y="345">8</text>
      <text x="300" y="389">3</text>
      <text x="300" y="441">6</text>
      <text x="430" y="513">4</text>
      <text x="510" y="513">5</text>
      <text x="620" y="513">4</text>
      <text x="700" y="513">5</text>
    </g>
  </g>

  <g id="flow-key" data-pptx-bounds="880 220 336 400">
    <line x1="880" y1="220" x2="880" y2="620" stroke="#D6CFC2" stroke-width="1" />
    <text x="900" y="248" font-weight="bold" fill="#003657">Flows</text>
    <line x1="900" y1="283" x2="940" y2="283" stroke="#003657" stroke-width="2" stroke-dasharray="8,4" />
    <text x="952" y="288" font-size="18" font-weight="bold" fill="#003657">Management</text>
    <text x="900" y="316" font-size="18" fill="#1E1E1E">1  Investment selection and<tspan x="900" dy="22">management</tspan></text>
    <line x1="900" y1="355" x2="940" y2="355" stroke="#003657" stroke-width="2" />
    <text x="952" y="360" font-size="18" font-weight="bold" fill="#003657">Capital and proceeds</text>
    <text x="900" y="388" font-size="18" fill="#1E1E1E">2  GP capital when called<tspan x="900" dy="28">3  Capital paid when called</tspan><tspan x="900" dy="28">4  Investment capital / ownership</tspan></text>
    <text x="900" y="472" font-size="18" fill="#5C6670">5  Proceeds if realised<tspan x="900" dy="28">6  Fund distributions</tspan><tspan x="900" dy="28">7  Return on GP capital</tspan></text>
    <line x1="900" y1="567" x2="940" y2="567" stroke="#BC9E60" stroke-width="2" />
    <text x="952" y="572" font-size="18" font-weight="bold" fill="#003657">Compensation</text>
    <text x="900" y="600" font-size="18" fill="#1E1E1E">8  Fees / conditional carry</text>
  </g>

  <g id="footer" data-pptx-bounds="64 668 1152 36" fill="#5C6670" font-size="14">
    <text x="64" y="680">Source: Case pp. 3–5; Washington Mutual, Inc. Form 8-K (11 Apr 2008); Metrick &amp; Yasuda (2007). "TPG" is shorthand for the GP and management<tspan x="64" dy="17">entities; return arrows show the mechanism, not realised gains.</tspan></text>
    <text x="1216" y="697" text-anchor="end">6</text>
  </g>
</svg>
